<svg t="1648960753416" class="icon" viewBox="0 0 1024 1024" version="1.1" xmlns="http://www.w3.org/2000/svg" p-id="2696" width="200" height="200"><path d="M322.6624 518.7072c10.5984 0 20.48 5.376 26.0096 14.3872 33.6384 54.8864 94.1056 91.4944 163.1744 91.4944s129.536-36.608 163.1744-91.4944c5.5296-9.0112 15.4624-14.3872 26.0096-14.3872h116.8896V228.352c0-49.4592-40.0896-89.5488-89.5488-89.5488H295.3216c-49.4592 0-89.5488 40.0896-89.5488 89.5488v290.304h116.8896z" fill="#E6E6FF" p-id="2697"></path><path d="M627.456 144.3328s91.5968 14.6944 91.5968 91.5968v329.0624h96.1024V230.2976c0-53.1456-42.9568-110.848-187.6992-85.9648z" fill="#C9C9F4" p-id="2698"></path><path d="M391.1168 144.3328S299.52 159.0272 299.52 235.9296v329.0624H203.4176V230.2976c0-53.1456 42.9568-110.848 187.6992-85.9648z" fill="#F8F8FF" p-id="2699"></path><path d="M700.9792 518.7072c-10.5984 0-20.48 5.376-26.0096 14.3872-33.6384 54.8864-94.1056 91.4944-163.1744 91.4944s-129.536-36.608-163.1744-91.4944c-5.5296-9.0112-15.4624-14.3872-26.0096-14.3872H192.3072c-44.032 0-79.7184 35.6864-79.7184 79.7184v183.0912c0 62.5664 50.688 113.2544 113.2544 113.2544H797.696c62.5664 0 113.2544-50.688 113.2544-113.2544v-183.0912c0-44.032-35.6864-79.7184-79.7184-79.7184h-130.2528z" fill="#FFE8B2" p-id="2700"></path><path d="M255.7952 533.504s-65.9456 6.8096-65.9456 65.9456v194.8672c0 28.6208 11.6736 70.8608 84.0704 92.7232-84.4288 0-149.9648-23.1424-149.9648-105.0624v-196.5056c0-29.3888 24.0128-74.5984 131.84-51.968z" fill="#FFF2D7" p-id="2701"></path><path d="M766.976 533.504s65.9456 6.8096 65.9456 65.9456v194.8672c0 28.6208-11.6736 70.8608-84.0704 92.7232 84.4288 0 149.9648-23.1424 149.9648-105.0624v-196.5056c0-29.3888-24.0128-74.5984-131.84-51.968z" fill="#E8BC70" p-id="2702"></path><path d="M386.304 303.3088h251.0848c14.1312 0 25.6-11.4688 25.6-25.6s-11.4688-25.6-25.6-25.6H386.304c-14.1312 0-25.6 11.4688-25.6 25.6s11.4176 25.6 25.6 25.6z" fill="#434A54" p-id="2703"></path><path d="M843.4688 493.824V228.352c0-63.488-51.6608-115.1488-115.1488-115.1488H295.3216c-63.488 0-115.1488 51.6608-115.1488 115.1488v265.472C127.7952 499.9168 87.04 544.4096 87.04 598.3744v183.0912c0 76.5952 62.3104 138.8544 138.8544 138.8544h571.8528c76.5952 0 138.8544-62.3104 138.8544-138.8544v-183.0912c0-53.9648-40.7552-98.4576-93.1328-104.5504zM231.3728 228.352c0-35.2256 28.672-63.9488 63.9488-63.9488h433.0496c35.2768 0 63.9488 28.672 63.9488 63.9488v264.704h-91.2896c-19.456 0-37.7856 10.1888-47.872 26.624-30.4128 49.6128-83.2512 79.2576-141.312 79.2576-10.9056 0-21.6064-1.024-32-3.072a163.2256 163.2256 0 0 1-20.3776-5.3248c-36.5056-12.0832-68.0448-36.7616-88.9344-70.8608-0.768-1.2288-1.6384-2.3552-2.5088-3.5328-0.5632-0.768-1.0752-1.5872-1.6384-2.3552l-0.1536-0.1536c-10.496-12.8512-26.624-20.6336-43.5712-20.6336H231.3728V228.352z m654.0288 553.1136c0 48.3328-39.3216 87.6544-87.6544 87.6544H225.8944c-48.3328 0-87.6544-39.3216-87.6544-87.6544v-183.0912c0-29.8496 24.2688-54.1184 54.1184-54.1184H322.7136c1.792 0 3.3792 0.8192 4.1984 2.1504 39.7824 64.9216 108.9536 103.68 184.9856 103.68 28.5184 0 56.064-5.4272 81.4592-15.6672 25.3952-10.24 48.64-25.2416 68.5568-44.3904l0.768-0.768c3.5328-3.4304 6.912-6.9632 10.1888-10.6496a217.1392 217.1392 0 0 0 24.0128-32.1536c0.0512-0.1024 0.1536-0.2048 0.256-0.3072 0.8704-1.1776 2.3552-1.8944 3.9424-1.8944H831.4368c29.8496 0 54.1184 24.2688 54.1184 54.1184v183.0912z" fill="#434A54" p-id="2704"></path></svg>
